<svg width="49" height="49" viewBox="0 0 49 49" fill="none" xmlns="http://www.w3.org/2000/svg">
<path d="M48.4013 45.5154L34.467 31.5812C37.1661 28.2472 38.7913 24.0107 38.7913 19.3966C38.7913 8.70251 30.0897 0.000976562 19.3956 0.000976562C8.70143 0.000976562 0 8.70241 0 19.3966C0 30.0907 8.70153 38.7922 19.3957 38.7922C24.0098 38.7922 28.2462 37.1671 31.5802 34.468L45.5144 48.4023C45.9126 48.8004 46.4352 49.0005 46.9579 49.0005C47.4806 49.0005 48.0033 48.8004 48.4014 48.4023C49.1996 47.604 49.1996 46.3137 48.4013 45.5154ZM19.3957 34.7089C10.9514 34.7089 4.08333 27.8408 4.08333 19.3966C4.08333 10.9523 10.9514 4.08421 19.3957 4.08421C27.84 4.08421 34.708 10.9523 34.708 19.3966C34.708 27.8408 27.8399 34.7089 19.3957 34.7089Z" fill="white"/>
</svg>
